<svg width="320" height="320" viewBox="0 0 320 320" fill="none" xmlns="http://www.w3.org/2000/svg">
  <circle cx="160" cy="160" r="150" fill="#6F2A5D" stroke="#C7A56C" stroke-width="16" />
  <g transform="translate(90 90)">
    <path d="M70 120C70 120 90 96 90 70C90 44 70 24 70 24C70 24 50 44 50 70C50 96 70 120 70 120Z" stroke="#C7A56C" stroke-width="6" fill="none"/>
    <path d="M70 120C70 120 52 92 34 84C16 76 0 82 0 82C0 82 24 108 46 112C64 116 70 120 70 120Z" stroke="#C7A56C" stroke-width="6" fill="none"/>
    <path d="M70 120C70 120 76 116 94 112C116 108 140 82 140 82C140 82 124 76 106 84C88 92 70 120 70 120Z" stroke="#C7A56C" stroke-width="6" fill="none"/>
  </g>
  <rect x="40" y="184" width="240" height="64" rx="32" fill="#C7A56C" />
  <text x="160" y="226" text-anchor="middle" font-family="'Playfair Display', serif" font-size="38" fill="#6F2A5D" font-weight="700">TEA &amp; BENEFITS</text>
</svg>
